<svg width="2480" height="2480" viewBox="0 0 2480 2480" fill="none" xmlns="http://www.w3.org/2000/svg">
<rect width="2480" height="2480" fill="#1E1E1E"/>
<rect width="2480" height="2480" fill="black"/>
<path d="M1352.86 2047.07C1551.26 2019.19 1732.43 1919.16 1861.72 1766.1C1991.01 1613.05 2059.35 1417.71 2053.67 1217.43C2048 1017.16 1968.71 826.005 1830.96 680.515C1693.21 535.025 1506.68 445.409 1307.01 428.803C1107.35 412.197 908.566 469.764 748.676 590.499C588.786 711.234 479.006 886.665 440.324 1083.25C401.643 1279.83 436.775 1483.78 539.004 1656.09C641.232 1828.4 803.384 1956.99 994.455 2017.26L1079.08 1749C954.001 1709.54 847.85 1625.36 780.927 1512.56C714.005 1399.76 691.006 1266.25 716.328 1137.56C741.65 1008.87 813.517 894.022 918.187 814.984C1022.86 735.946 1152.99 698.26 1283.7 709.131C1414.4 720.002 1536.52 778.668 1626.69 873.911C1716.87 969.155 1768.78 1094.29 1772.49 1225.4C1776.21 1356.51 1731.47 1484.38 1646.83 1584.58C1562.19 1684.78 1443.59 1750.26 1313.71 1768.52L1352.86 2047.07Z" fill="#D9D9D9"/>
</svg>
